<?xml version="1.0" encoding="utf-8"?>
<!-- Generator: Adobe Illustrator 22.0.1, SVG Export Plug-In . SVG Version: 6.00 Build 0)  -->
<svg version="1.1" id="Слой_1" xmlns="http://www.w3.org/2000/svg" xmlns:xlink="http://www.w3.org/1999/xlink" x="0px" y="0px"
	 viewBox="0 0 27 34" style="enable-background:new 0 0 27 34;" xml:space="preserve">
<style type="text/css">
	.st0{fill:#30358C;}
</style>
<path class="st0" d="M13.6,0l-0.1,0L0,1.4v24.4l13.5,7.9L27,25.8V1.4L13.6,0z M25.2,24.8l-11.7,6.9L1.8,24.8v-10l11.7,6.9l0,1.2
	l-8-4.7l0,1.2l8,4.8l0,1.3l-8-4.7l0,1.2l8,4.8h0l8.1-4.8v-1.2l0,0v-0.4v-0.5v-3l3.6-2.1V24.8z M25.2,13.4L22,15.2h0l-1.5,0.9
	l-7.1-4.2l0,1.2l6,3.5l-0.1,0l-0.1,0.1l-0.9,0.5l-5-2.9l0,1.2l3.9,2.3l-0.9,0.6l0,0l-3-1.7l0,1.2l2,1.1l-2,1.2L1.8,13.5l11.6-6.9v0
	L25.2,13.4z M25.2,12.1L13.4,5.3v0l0,0l0,0v0L1.8,12.1V3l11.7-1.2L25.2,3V12.1z"/>
</svg>
